<?xml version="1.0" encoding="utf-8"?>
<!-- Generator: Adobe Illustrator 23.0.0, SVG Export Plug-In . SVG Version: 6.00 Build 0)  -->
<svg version="1.1" baseProfile="tiny" xmlns="http://www.w3.org/2000/svg" xmlns:xlink="http://www.w3.org/1999/xlink" x="0px"
	 y="0px" viewBox="0 0 196.7 189.8" xml:space="preserve">
<g id="Capa_1">
	<g>
		<path fill="#020202" d="M171,164.3c-47.2,0-93.8,0-140.9,0c2.2-11.4,3.4-22.7,6.9-33.7c1.6-5.2,5.4-8.6,10.1-11.1
			c9.3-4.9,19.4-8.1,29.3-11.7c3.6-1.3,5.3-5.3,2.8-8.2c-9.9-11.6-10-25.8-10.9-39.7c-0.7-10.8,1.5-20.9,10-28.4
			c10.6-9.2,22.8-10.4,35.5-5.5c12.3,4.8,18,14.9,18.7,27.6c0.6,10.6-0.6,21.1-3.3,31.4c-1.3,5-3.3,9.7-6.8,13.6
			c-0.7,0.8-1.5,1.5-1.6,2.8c-0.2,3.2-0.1,5.5,4,6.7c8.5,2.5,16.7,5.9,24.9,9.3c9.2,3.8,14.5,10.2,16.2,20
			C167.5,146.3,169.3,155.2,171,164.3z"/>
		<path fill="#4ABDAC" d="M124.5,44.4c3.6,7.3,2.5,15.1,2.1,22.8c-0.2,4.8-1.3,9.6-2.2,14.3c-1.5,8.1-6,14-12.1,19
			c-9.1,7.4-16.8,6.7-25.5-2c-3.6-6.5-4-13.7-4.5-20.9c-0.2-3.7-0.1-7.5,0-11.2c0.1-17.5,15.1-29.6,32.4-26
			C118.1,41.1,121.6,42,124.5,44.4z"/>
		<path fill="#4ABDAC" d="M158.5,129.2c3,8.7,3.7,17.9,5.1,27c0.6,3.5-1.9,2.3-3.3,2.3c-16.4,0.1-32.8,0-49.2,0c-2.5,0-5,0-8.3,0
			c6.2-15.5,12.2-30.4,18.2-45.3c1.2-0.7,2.4-0.2,3.6,0.3c10.2,3.8,20.4,7.6,30.3,12.6C156.3,126.9,157.7,127.7,158.5,129.2z"/>
		<path fill="#4ABDAC" d="M79.1,112c6.2,15.2,12.4,30.4,19,46.5c-20.6,0-40.4,0-60.3,0c-1.7-3.2,0.1-6.3,0.4-9.4
			c1.1-14.8,8.3-24,21.1-28.8C65.9,117.7,72.3,114.4,79.1,112z"/>
		<path fill="#FEFEFE" d="M124.5,44.4c-3.7-0.3-6.8-2.4-10.5-3c-17.2-2.6-30.6,8.5-30.8,25.8c-0.2,10.6,1,21,3.7,31.3
			C75.7,89.9,75.6,77,74.4,64.8c-0.6-5.8-0.8-11.7,0.9-17.4c3.3-10.7,12.1-17.6,23.4-18.2C110.6,28.5,119.7,33.9,124.5,44.4z"/>
		<path fill="#FC4A1A" d="M105.8,139.3c-1.6,3.8-3.2,7.6-5.2,12.3c-2-4.6-3.6-8.4-5.3-12.3c-0.4-2.4,0.1-4.7,0.6-6.9
			c0.8-3.4,1.4-6.7-0.9-9.9c-1.3-1.8-0.3-3.7,0.7-5.4c1.2-1.9,2.6-3.6,2.9-5.9c1.3-0.4,2.5-0.4,3.8,0c0.4,1,0.4,2.2,1.1,3.1
			c2.9,3.5,4.1,7,1.1,11.2c-1,1.4-0.2,3.2,0.1,4.8C105.3,133.3,106.2,136.2,105.8,139.3z"/>
		<path fill="#FDFDFD" d="M98.6,111.2c0.5,0.6,1.9,0.7,0.8,2c-1.3,1.6-2.3,3.4-3.5,5.1c-0.7,1.1-1.6,2.2-0.5,3.3
			c3.7,3.9,1.9,8.2,1.1,12.4c-0.3,1.7-0.9,3.4-1.3,5.1c-3.7-8.4-7.5-16.9-11.3-25.3c-0.6-1.3-0.6-2.3,0.3-3.4c1-1.3,1.8-2.7,1.8-4.7
			C90.1,108.3,93.9,110.9,98.6,111.2z"/>
		<path fill="#FDFDFD" d="M105.8,139.3c-1.4-3.8-1.7-7.7-2.6-11.6c-0.2-1.1-0.2-2.1,0.4-2.7c3.6-3.7,1.7-6.8-0.8-10
			c-0.7-0.9-3.1-2.2-0.4-3.7c4.6-0.4,8.4-2.5,12.1-5.1c0.2,0.1,0.5,0.2,0.6,0.4c4.2,5.8,0.5,10.7-1.7,15.8
			C110.9,128,108.3,133.6,105.8,139.3z"/>
	</g>
</g>
<g id="Capa_3">
</g>
<g id="Capa_2" display="none">
</g>
</svg>
