<?xml version="1.0" encoding="utf-8"?>
<!-- Generator: Adobe Illustrator 23.0.0, SVG Export Plug-In . SVG Version: 6.00 Build 0)  -->
<svg version="1.1" baseProfile="tiny" xmlns="http://www.w3.org/2000/svg" xmlns:xlink="http://www.w3.org/1999/xlink" x="0px"
	 y="0px" viewBox="0 0 196.7 189.8" xml:space="preserve">
<g id="Capa_1" display="none">
</g>
<g id="Capa_3">
	<g>
		<path fill="#020202" d="M169,168.3c-47.2,0-93.8,0-140.9,0c2.2-11.4,3.4-22.7,6.9-33.7c1.6-5.2,5.4-8.6,10.1-11.1
			c9.3-4.9,19.4-8.1,29.3-11.7c3.6-1.3,5.3-5.3,2.8-8.2c-9.9-11.6-10-25.8-10.9-39.7c-0.7-10.8,1.5-20.9,10-28.4
			C87,26.3,99.3,25.1,111.9,30c12.3,4.8,18,14.9,18.7,27.6c0.6,10.6-0.6,21.1-3.3,31.4c-1.3,5-3.3,9.7-6.8,13.6
			c-0.7,0.8-1.5,1.5-1.6,2.8c-0.2,3.2-0.1,5.5,4,6.7c8.5,2.5,16.7,5.9,24.9,9.3c9.2,3.8,14.5,10.2,16.2,20
			C165.5,150.3,167.3,159.2,169,168.3z"/>
		<path fill="#FFFFFF" d="M122.5,48.4c3.6,7.3,2.5,15.1,2.1,22.8c-0.2,4.8-1.3,9.6-2.2,14.3c-1.5,8.1-6,14-12.1,19
			c-9.1,7.4-16.8,6.7-25.5-2c-3.6-6.5-4-13.7-4.5-20.9c-0.2-3.7-0.1-7.5,0-11.2c0.1-17.5,15.1-29.6,32.4-26
			C116.1,45.1,119.6,46,122.5,48.4z"/>
		<path fill="#FEFEFE" d="M122.5,48.4c-3.7-0.3-6.8-2.4-10.5-3c-17.2-2.6-30.6,8.5-30.8,25.8c-0.2,10.6,1,21,3.7,31.3
			C73.7,93.9,73.6,81,72.4,68.8c-0.6-5.8-0.8-11.7,0.9-17.4c3.3-10.7,12.1-17.6,23.4-18.2C108.6,32.5,117.7,37.9,122.5,48.4z"/>
		<path fill="#FEFEFE" d="M80.1,126.8c-0.7,2.2-2.8,2-4.4,2.6c-6.7,2.7-13.5,5-19.7,8.6c-4.1,2.3-6.7,5.7-7.7,10.3
			c-1,4.7-1.9,9.5-2.9,14.2c-10.7,0.5-10.8,0.5-8.7-9.8c0.9-4.3,1.8-8.7,2.7-13c1-5.1,4-8.7,8.5-11.1c8.4-4.3,17.2-7.4,26-10.6
			c1.6-0.6,2.2-0.2,2.8,1.2C77.8,121.8,79,124.3,80.1,126.8z"/>
		<path fill="#FFFFFF" d="M103.8,143.3c-1.6,3.8-3.2,7.6-5.2,12.3c-2-4.6-3.6-8.4-5.3-12.3c-0.4-2.4,0.1-4.7,0.6-6.9
			c0.8-3.4,1.4-6.7-0.9-9.9c-1.3-1.8-0.3-3.7,0.7-5.4c1.2-1.9,2.6-3.6,2.9-5.9c1.3-0.4,2.5-0.4,3.8,0c0.4,1,0.4,2.2,1.1,3.1
			c2.9,3.5,4.1,7,1.1,11.2c-1,1.4-0.2,3.2,0.1,4.8C103.3,137.3,104.2,140.2,103.8,143.3z"/>
		<path fill="#FDFDFD" d="M96.6,115.2c0.5,0.6,1.9,0.7,0.8,2c-1.3,1.6-2.3,3.4-3.5,5.1c-0.7,1.1-1.6,2.2-0.5,3.3
			c3.7,3.9,1.9,8.2,1.1,12.4c-0.3,1.7-0.9,3.4-1.3,5.1c-3.7-8.4-7.5-16.9-11.3-25.3c-0.6-1.3-0.6-2.3,0.3-3.4c1-1.3,1.8-2.7,1.8-4.7
			C88.1,112.3,91.9,114.9,96.6,115.2z"/>
		<path fill="#FDFDFD" d="M103.8,143.3c-1.4-3.8-1.7-7.7-2.6-11.6c-0.2-1.1-0.2-2.1,0.4-2.7c3.6-3.7,1.7-6.8-0.8-10
			c-0.7-0.9-3.1-2.2-0.4-3.7c4.6-0.4,8.4-2.5,12.1-5.1c0.2,0.1,0.5,0.2,0.6,0.4c4.2,5.8,0.5,10.7-1.7,15.8
			C108.9,132,106.3,137.6,103.8,143.3z"/>
		<path fill="#FCFCFC" d="M156.5,136.6c-12.1-5.6-24.9-9.7-37.5-14.1c1.9-5.2,1.9-5.1,6.9-3.4c7.8,2.7,15.6,5.5,22.9,9.4
			C152.3,130.3,155.5,132.5,156.5,136.6z"/>
		<g>
			<path fill="#F7B733" d="M161.6,160.2c-1.6-9.1-2.4-18.3-5.7-27c-0.9-1.5-2.5-2.2-4-3C141,124,130.4,119.8,119,116
				c-1.3-0.4-3.4,0.6-4.7,1.3c-6.7,14.9-13.3,29.8-20.3,45.3c3.7,0,6.5,0,9.3,0c18.2,0,36.5,0,54.7,0
				C159.5,162.5,162.2,163.7,161.6,160.2z"/>
			<path fill="#F7B733" d="M51,127c-13.1,5.6-13.9,15.8-15,28c-0.2,2.6-1.1,4.8,0.8,7.4c21.2,0,44.3,0,66.2,0
				C96,149.2,88,127,79,116C71.8,118,58,124,51,127z"/>
		</g>
	</g>
	<path fill="#F7B733" d="M122,138c0-6.6-5.6-12-12.5-12c-4.8,0-8.9,2.5-11,6.3c-2.1-3.7-6.2-6.3-11-6.3c-6.9,0-12.5,5.4-12.5,12
		c0,6.4,5.2,11.6,11.7,12c1.7,4.7,6.3,8,11.8,8s10.1-3.4,11.8-8C116.8,149.6,122,144.4,122,138z"/>
	<g>
		<path fill="#C68214" d="M63.3,60c-0.1-8.6,1.7-16.8,5.6-24.6c0.6-1.2,1.4-2.4,2.5-3.2c7.9-5.9,16.7-9.5,26.7-9.9
			c0.7,0.7,0.8,1.5,0.8,2.4c0,7.6,0.3,15.2-0.2,22.7c-0.1,0.3-0.2,0.6-0.4,0.9c-2.3,1.2-4.8,1-7.3,1.3c-7.9,1.1-15.4,3.1-22.4,7
			C66.8,57.8,65.6,59.9,63.3,60z"/>
		<path fill="#E09F2B" d="M98.1,48.4c0-8.7,0-17.3,0-26c10.2,0.3,19.2,3.9,27.1,10.2c2.9,2.3,4,6,5.1,9.6c1.7,5.6,2.9,11.4,2.6,17.3
			c-1.1,0.3-1.8-0.5-2.6-1c-8.7-6-18.6-8.3-28.9-9.2C100.2,49.1,99,49.4,98.1,48.4z"/>
		<path fill="#F7B733" d="M98.1,48.4c11.5,0.3,22.5,2.7,32.2,9.2c0.9,0.6,1.7,1.2,2.6,1.9c0.3,1-0.6,1.8-0.6,2.8
			c-0.3,0.4-0.6,0.8-0.8,1.2c-3.3,6.3-5.3,7-11.2,2.8c-6.2-4.4-12.7-7.7-20.5-7.5c-1-0.1-2.2-0.2-2.3-1.6
			C97.2,54.2,96.5,51.3,98.1,48.4L98.1,48.4z"/>
		<path fill="#F4C167" d="M97.8,48.2c0.1,2.6,0.2,5.2,0.1,7.7c0,1.4,0.6,2.1,1.7,2.5c-9.4-0.6-17.5,2.6-24.7,8.5
			c-1.7,1.3-3.5,2.4-5.8,2.1c-2.9-1.3-3.6-4.4-5.3-6.7c-0.2-0.6-0.4-1.3-0.6-1.9c7.9-7.4,17.7-9.9,28-11.5
			C93.4,48.5,95.6,47.9,97.8,48.2z"/>
		<path fill="#F7B733" stroke="#FFFFFF" stroke-width="0.75" stroke-miterlimit="10" d="M77,108.5c0,4.9,2.8,8.2,6.4,11
			c2.8,2.2,5.7,4.1,8.1,6.6c2.2,2.3,4.1,4.7,4.9,7.8c-4.3-3.7-9.2-6.2-15-6.8c-0.9-0.1-2.5-0.2-2.5-1.3c-0.1-2.9-1.8-2.2-3.5-1.9
			c-2.7,0.5-5.4,0.9-8,1.5c-1.7,0.3-2.2,0-1.6-1.8c1.1-3.7,3.1-7,5.1-10.3C72.7,111.5,74,109,77,108.5z"/>
		<path fill="#F7B733" stroke="#FFFFFF" stroke-width="0.75" stroke-miterlimit="10" d="M120.2,108.5c0,4.9-2.8,8.2-6.4,11
			c-2.8,2.2-5.7,4.1-8.1,6.6c-2.2,2.3-4.1,4.7-4.9,7.8c4.3-3.7,9.2-6.2,15-6.8c0.9-0.1,2.5-0.2,2.5-1.3c0.1-2.9,1.8-2.2,3.5-1.9
			c2.7,0.5,5.4,0.9,8,1.5c1.7,0.3,2.2,0,1.6-1.8c-1.1-3.7-3.1-7-5.1-10.3C124.4,111.5,123.2,109,120.2,108.5z"/>
	</g>
	<path fill="none" stroke="#CE8613" stroke-width="2" stroke-miterlimit="10" d="M98.5,132.5c0,7.5,0,30.1,0,30.1"/>
</g>
<g id="Capa_2" display="none">
</g>
</svg>
